<?xml version="1.0" encoding="UTF-8"?>
<svg width="20px" height="20px" viewBox="0 0 20 20" version="1.1" xmlns="http://www.w3.org/2000/svg" xmlns:xlink="http://www.w3.org/1999/xlink">
    <!-- Generator: sketchtool 51.3 (57544) - http://www.bohemiancoding.com/sketch -->
    <title>9C65BEE2-D798-451E-9E40-A4F6F0E88C4A</title>
    <desc>Created with sketchtool.</desc>
    <defs></defs>
    <g id="Driving-History" stroke="none" stroke-width="1" fill="none" fill-rule="evenodd">
        <g id="DH4.1" transform="translate(-252.000000, -299.000000)" fill="#08BFC1" stroke="#08BFC1" stroke-width="0.4">
            <g id="icons-/-system-/-calendar" transform="translate(238.000000, 286.000000)">
                <path d="M31.565324,30.3560248 C31.5605679,31.1723155 31.0231347,31.3074092 30.7092356,31.315047 C30.7092356,31.315047 17.886934,31.3174338 17.3304766,31.3179112 C17.0784061,31.3179112 16.8786521,31.2472614 16.7359707,31.1073941 C16.5314607,30.9026054 16.4268277,30.5202377 16.4268277,30.0056404 C16.4268277,29.5378247 16.4268277,24.7202779 16.4268277,21.3500955 L31.57008,21.3500955 C31.57008,24.587571 31.5748361,29.2113085 31.565324,30.3560248 Z M16.4268277,18.0677479 C16.4268277,17.3187654 16.7121905,16.9979775 17.3827931,16.9941586 C17.4446217,16.9941586 17.9582747,16.9941586 18.7525345,16.9941586 L18.7525345,18.0462665 C18.7525345,18.441523 19.0711896,18.7623109 19.4659415,18.7623109 C19.8559373,18.7623109 20.1793485,18.441523 20.1793485,18.0462665 L20.1793485,16.9936812 C20.4837354,16.9936812 20.8071466,16.9936812 21.1448259,16.9936812 C23.2327304,16.9936812 25.7867274,16.9936812 27.7081702,16.9936812 L27.7081702,18.0462665 C27.7081702,18.441523 28.0268253,18.7623109 28.4215772,18.7623109 C28.8163291,18.7623109 29.1349842,18.441523 29.1349842,18.0462665 L29.1349842,16.9936812 C29.9958286,16.9936812 30.54753,16.9941586 30.5665542,16.9941586 C30.9137456,17.0056153 31.16106,17.0944048 31.3180096,17.2672102 C31.5415438,17.5078011 31.5748361,17.898284 31.57008,18.0209663 C31.57008,18.0367193 31.57008,18.0529496 31.57008,18.0691799 C31.57008,18.0963896 31.57008,18.8267549 31.57008,19.9180066 L16.4268277,19.9180066 C16.4268277,18.8086151 16.4268277,18.0682252 16.4268277,18.0682252 L16.4268277,18.0677479 Z M32.996894,18.0858876 C33.0016501,17.8882594 33.0016501,16.9989322 32.383364,16.3120069 C32.0884891,15.9869228 31.5462998,15.5935757 30.5903344,15.5620697 C30.4904575,15.5620697 29.9435121,15.5620697 29.1349842,15.5620697 L29.1349842,14.4660444 C29.1349842,14.0703105 28.8163291,13.75 28.4215772,13.75 C28.0268253,13.75 27.7081702,14.0703105 27.7081702,14.4660444 L27.7081702,15.5620697 C25.4680723,15.5620697 22.3956662,15.5620697 20.1793485,15.5620697 L20.1793485,14.4660444 C20.1793485,14.0703105 19.8559373,13.75 19.4659415,13.75 C19.0711896,13.75 18.7525345,14.0703105 18.7525345,14.4660444 L18.7525345,15.5620697 C17.9535187,15.5620697 17.4351096,15.5620697 17.378037,15.5620697 C16.2270737,15.5687528 14.9952577,16.2308552 15.0000137,18.0691799 C15.0000137,18.187566 15.0047698,29.2776619 15.0000137,30.0022989 C15.0000137,30.9216999 15.2425721,31.6344028 15.7276889,32.1203583 C16.1414649,32.5323225 16.6931663,32.75 17.3257205,32.75 C17.3304766,32.75 17.3304766,32.75 17.3304766,32.75 C17.8916901,32.7495226 30.7092356,32.7471358 30.7044796,32.7471358 C30.7092356,32.7471358 30.7092356,32.7471358 30.7092356,32.7471358 C31.6223965,32.7471358 32.9826259,32.1131978 32.992138,30.3650947 C33.0064061,28.5983745 32.996894,18.5790036 32.996894,18.0858876 Z" id="calendar_ic"></path>
            </g>
        </g>
    </g>
</svg>