<?xml version="1.0" encoding="UTF-8"?>
<svg width="33px" height="33px" viewBox="0 0 33 33" version="1.1" xmlns="http://www.w3.org/2000/svg" xmlns:xlink="http://www.w3.org/1999/xlink">
    <!-- Generator: sketchtool 49.3 (51167) - http://www.bohemiancoding.com/sketch -->
    <title>EE6C4020-D9B9-4B43-B184-6602261C9468</title>
    <desc>Created with sketchtool.</desc>
    <defs>
        <circle id="path-1" cx="12.9908621" cy="12.6938092" r="12.5"></circle>
        <filter x="-20.0%" y="-20.0%" width="156.0%" height="156.0%" filterUnits="objectBoundingBox" id="filter-2">
            <feOffset dx="2" dy="2" in="SourceAlpha" result="shadowOffsetOuter1"></feOffset>
            <feGaussianBlur stdDeviation="2" in="shadowOffsetOuter1" result="shadowBlurOuter1"></feGaussianBlur>
            <feColorMatrix values="0 0 0 0 0   0 0 0 0 0   0 0 0 0 0  0 0 0 0.1 0" type="matrix" in="shadowBlurOuter1"></feColorMatrix>
        </filter>
    </defs>
    <g id="Symbols" stroke="none" stroke-width="1" fill="none" fill-rule="evenodd">
        <g id="MapControl" transform="translate(2.000000, -83.000000)">
            <g id="Group">
                <g id="car" transform="translate(0.000000, 85.000000)">
                    <g id="Ellipse_26_copy_8" fill-rule="nonzero">
                        <use fill="black" fill-opacity="1" filter="url(#filter-2)" xlink:href="#path-1"></use>
                        <use fill="#FFFFFF" fill-rule="evenodd" xlink:href="#path-1"></use>
                    </g>
                    <path d="M7.80055541,10.2488417 L8.40995359,8.32837533 C8.65160711,7.56682488 9.3633914,7.04884166 10.168219,7.04884166 L15.4318023,7.04884166 C16.2003055,7.04884166 16.8881707,7.52181353 17.1578757,8.23567896 L17.9184671,10.2488417 L18.3169805,10.2488417 L19.0082247,10.2488417 C19.5172429,10.2488417 19.9298837,10.6581813 19.9298837,11.1631274 L19.9298837,11.6202702 C19.9298837,11.8727433 19.7235633,12.0774131 19.4690542,12.0774131 L19.0082247,12.0774131 L19.0082247,15.3916988 L19.0082247,16.8774131 C19.0082247,17.7610687 18.2861033,18.4774131 17.3953215,18.4774131 C16.5045396,18.4774131 15.7824183,17.7610687 15.7824183,16.8774131 L15.7824183,16.6488417 M14.4055551,16.6488417 L9.79163486,16.6488417 L9.79163486,16.8774131 C9.79163486,17.7610687 9.06951349,18.4774131 8.17873163,18.4774131 C7.28794978,18.4774131 6.56582841,17.7610687 6.56582841,16.8774131 L6.56582841,15.3916988 L6.56582841,12.0774131 L6.10499891,12.0774131 C5.85048981,12.0774131 5.64416942,11.8727433 5.64416942,11.6202702 L5.64416942,11.1631274 C5.64416942,10.6581813 6.0568102,10.2488417 6.56582841,10.2488417 L7.25707265,10.2488417 L7.80055541,10.2488417 M11.3150949,10.2488417 L16.1346714,10.2488417 L15.739613,9.05038894 C15.6157104,8.67451677 15.2622485,8.42027023 14.8636012,8.42027023 L10.9545592,8.42027023 C10.5266415,8.42027023 10.155009,8.71244603 10.0572656,9.12571829 L9.79163486,10.2488417" id="Combined-Shape" stroke="#08BFC1" fill="#FFFFFF" stroke-linecap="round" stroke-linejoin="round"></path>
                    <path d="M10.3595717,13.171749 C10.7540608,13.171749 11.0738574,13.4915456 11.0738574,13.8860347 C11.0738574,14.2805239 10.7540608,14.6003205 10.3595717,14.6003205 L9.35009527,14.6003205 C9.04087141,14.6003205 8.74904169,14.457265 8.55963711,14.2128365 L8.30640257,13.8860347 C8.24623468,13.8083875 8.21358319,13.7129432 8.21358319,13.6147125 C8.21358319,13.3700705 8.41190469,13.171749 8.65654667,13.171749 L10.3595717,13.171749 Z M15.2167136,13.171749 L16.9197386,13.171749 C17.1643806,13.171749 17.3627021,13.3700705 17.3627021,13.6147125 C17.3627021,13.7129432 17.3300506,13.8083875 17.2698827,13.8860347 L17.0166482,14.2128365 C16.8272436,14.457265 16.5354139,14.6003205 16.22619,14.6003205 L15.2167136,14.6003205 C14.8222245,14.6003205 14.5024279,14.2805239 14.5024279,13.8860347 C14.5024279,13.4915456 14.8222245,13.171749 15.2167136,13.171749 Z" id="Combined-Shape" stroke="#08BFC1" fill="#FFFFFF"></path>
                </g>
            </g>
        </g>
    </g>
</svg>