<?xml version="1.0" encoding="UTF-8"?>
<svg width="24px" height="24px" viewBox="0 0 24 24" version="1.1" xmlns="http://www.w3.org/2000/svg" xmlns:xlink="http://www.w3.org/1999/xlink">
    <!-- Generator: Sketch 50.2 (55047) - http://www.bohemiancoding.com/sketch -->
    <title>svg/drivingHistory_ic</title>
    <desc>Created with Sketch.</desc>
    <defs>
        <path d="M16,4 L15.9998901,4 C9.38308613,4 4,9.38313544 4,16 C4,22.6167546 9.38308613,28 15.9998901,28 L16,28 C22.6168039,28 28,22.6167546 28,16 C28,9.38313544 22.6168039,4 16,4 Z M16,5.10817942 C22.0057717,5.10817942 26.8918307,9.99417326 26.8918307,16 C26.8918307,22.0057168 22.0056618,26.8918206 15.9998901,26.8918206 C9.99422829,26.8918206 5.10816927,22.0057168 5.10816927,16 C5.10816927,9.99417326 9.99422829,5.10817942 16,5.10817942 L16,5.10817942 Z M7.85688062,13.7310314 C7.66661934,13.7310314 7.47741683,13.7819587 7.31013089,13.881696 C7.03463849,14.0460188 6.8476594,14.3254313 6.80096756,14.6428539 C6.73362968,15.1004593 6.69943135,15.5571117 6.69943135,16 C6.69943135,18.2253468 7.49266314,20.3768966 8.93291035,22.0581357 C10.2677039,23.6162385 12.1137783,24.7002189 14.1310561,25.1101791 C14.2015703,25.1245785 14.2728257,25.1315665 14.3435516,25.1315665 C14.5875985,25.1315665 14.8266692,25.0478168 15.0189421,24.8906937 C15.2669064,24.6880429 15.4107935,24.3845961 15.4107935,24.0643148 L15.4107935,20.427824 C15.4107935,19.9811241 15.1325483,19.5816459 14.7134865,19.4267462 C13.2857328,18.8992612 12.3546489,17.5671024 12.3415201,16.0328222 C12.3376027,15.5874987 12.0577693,15.1914086 11.6392368,15.0391558 L8.22183924,13.7954053 C8.10346856,13.7523129 7.9799099,13.7310314 7.85688062,13.7310314 Z M7.85688062,14.7982831 L11.2742782,16.0420336 C11.2913244,18.0274606 12.5075355,19.7494627 14.3435516,20.427824 L14.3435516,24.0643148 C12.5556038,23.700941 10.9329302,22.7523787 9.74340012,21.3637868 C8.46863894,19.8757754 7.76667327,17.9709217 7.76667327,16 C7.76667327,15.5993571 7.79811879,15.1968084 7.85688062,14.7982831 L7.85688062,14.7982831 Z M15.9997882,6.6995579 C14.3269289,6.6995579 12.6904913,7.1432932 11.2673962,7.98301277 C9.97463587,8.74597068 8.87150159,9.83333922 8.07752866,11.1278054 C7.91003097,11.400971 7.87403273,11.7350166 7.97959227,12.0375104 C8.08515181,12.3401102 8.32115203,12.579183 8.62226672,12.6887669 L12.0427347,13.933788 C12.1619524,13.9770922 12.2854052,13.9981619 12.4074816,13.9981619 C12.7146313,13.9981619 13.0140519,13.8653907 13.2207242,13.6221886 C13.9233251,12.7959156 14.9103121,12.3408513 15.9997882,12.3408513 C17.0892644,12.3408513 18.0760396,12.7958097 18.7785347,13.6217651 C18.9853128,13.8649672 19.2846276,13.9977384 19.5917773,13.9977384 C19.7139595,13.9977384 19.8373064,13.9767745 19.9565241,13.9333645 L23.3772039,12.6884493 C23.6783186,12.5788654 23.9143188,12.3397925 24.0198783,12.0371928 C24.1254379,11.7345931 24.0894396,11.4006534 23.921942,11.1274878 C23.1278631,9.83312747 22.0248347,8.74575892 20.7319686,7.98290689 C19.3089793,7.1432932 17.6726476,6.6995579 15.9997882,6.6995579 Z M15.9997882,7.7668096 C17.4820687,7.7668096 18.9308919,8.15940576 20.1896657,8.90203506 C21.3390683,9.58029046 22.3082679,10.5380642 23.0121394,11.6855715 L19.5915655,12.9304867 C18.6934094,11.8742463 17.4019197,11.2735996 15.9997882,11.2735996 C14.5975509,11.2735996 13.3060612,11.8743522 12.4076933,12.9309102 L8.98722534,11.6858891 C9.6910968,10.5383818 10.6602965,9.58050221 11.8098049,8.90224682 C13.0685787,8.15940576 14.5175078,7.7668096 15.9997882,7.7668096 L15.9997882,7.7668096 Z M24.1433311,13.7351606 C24.0203019,13.7351606 23.8967432,13.7564421 23.7784784,13.7995345 L20.3603397,15.0436027 C19.9421248,15.1957496 19.6622915,15.5914162 19.6581623,16.0363162 C19.6435512,17.5695376 18.7121497,18.9005318 17.285243,19.4271697 C16.8659694,19.5818576 16.5875124,19.9814417 16.5875124,20.4283534 L16.5875124,24.0646324 C16.5875124,24.3849138 16.7312936,24.6882547 16.9793639,24.8910113 C17.1715309,25.0481345 17.4107075,25.1318841 17.6547544,25.1318841 C17.7254803,25.1318841 17.7965239,25.1248961 17.867144,25.1104967 C19.8847394,24.7008542 21.7312373,23.6169796 23.0662426,22.0588768 C24.5069133,20.377426 25.300251,18.2257704 25.300251,16 C25.300251,15.5584881 25.2662644,15.1034239 25.1993501,14.6475126 C25.1527641,14.329984 24.965785,14.0503598 24.6902926,13.8859311 C24.5230067,13.786088 24.3336983,13.7351606 24.1433311,13.7351606 Z M24.143437,14.8024123 C24.2017753,15.1996671 24.2330091,15.6008394 24.2330091,16 C24.2330091,17.9712393 23.5308317,19.8763048 22.2558587,21.3644221 C21.0661169,22.7530139 19.4430198,23.7014704 17.6547544,24.0646324 L17.6547544,20.4283534 C19.4901352,19.7510509 20.7064522,18.0308487 20.7252983,16.0464805 L24.143437,14.8024123 L24.143437,14.8024123 Z M17.9070597,16.1209128 L16.533621,15.620321 L16.533621,14.182284 C16.533621,13.9041421 16.3310779,13.6552226 16.054315,13.6276943 C15.73626,13.5959308 15.4664849,13.845168 15.4664849,14.1585673 L15.4664849,15.9938591 C15.4664849,16.2243558 15.6133366,16.4188539 15.8179971,16.493498 L17.5194433,17.1154263 C17.7807482,17.2106107 18.0839804,17.1055796 18.2046804,16.854966 C18.3432736,16.5669775 18.20161,16.2281674 17.9070597,16.1209128" id="path-1"></path>
    </defs>
    <g id="Symbol-Instance-Sheet-[DS_Library_AB001]" stroke="none" stroke-width="1" fill="none" fill-rule="evenodd">
        <g id="icons-/-brand-/-drivingHistory_ic" transform="translate(-4.000000, -4.000000)">
            <mask id="mask-2" fill="white">
                <use xlink:href="#path-1"></use>
            </mask>
            <use fill="#383838" fill-rule="evenodd" xlink:href="#path-1"></use>
            <g id="colors-/-neutral-/-charcoal" mask="url(#mask-2)" fill="#383838" fill-rule="evenodd">
                <rect id="charcoal" x="0" y="0" width="32" height="32"></rect>
            </g>
        </g>
    </g>
</svg>