<?xml version="1.0" encoding="UTF-8"?>
<svg width="23px" height="23px" viewBox="0 0 23 23" version="1.1" xmlns="http://www.w3.org/2000/svg" xmlns:xlink="http://www.w3.org/1999/xlink">
    <!-- Generator: sketchtool 51.3 (57544) - http://www.bohemiancoding.com/sketch -->
    <title>F77C15DC-AB1D-4D27-8FFE-53D26ADFED70</title>
    <desc>Created with sketchtool.</desc>
    <defs></defs>
    <g id="Driving-History" stroke="none" stroke-width="1" fill="none" fill-rule="evenodd">
        <g id="DH3.3" transform="translate(-1046.000000, -592.000000)">
            <g id="Group-5" transform="translate(878.000000, 486.000000)">
                <g id="icons-/-trips-/-end" transform="translate(164.690004, 102.671723)">
                    <g id="b_pin" transform="translate(4.000000, 4.000000)">
                        <rect id="Rectangle-27-Copy" fill="#383838" x="0" y="0" width="22" height="22" rx="11"></rect>
                        <path d="M7.815,16 L7.815,6.51 L10.779,6.51 C12.885,6.51 14.107,7.446 14.107,9.175 C14.107,9.968 13.756,10.605 13.08,11.008 C13.951,11.411 14.445,12.139 14.445,13.179 C14.445,15.064 13.132,16 11.026,16 L7.815,16 Z M10.935,11.97 L9.622,11.97 L9.622,14.336 L11.026,14.336 C12.079,14.336 12.625,13.907 12.625,13.14 C12.625,12.373 12.261,11.97 10.935,11.97 Z M10.792,8.174 L9.622,8.174 L9.622,10.28 L10.779,10.28 C11.897,10.28 12.287,9.838 12.287,9.175 C12.287,8.486 11.858,8.174 10.792,8.174 Z" id="B" fill="#FFFFFF"></path>
                    </g>
                </g>
            </g>
        </g>
    </g>
</svg>