<?xml version="1.0" encoding="UTF-8"?>
<svg width="33px" height="33px" viewBox="0 0 33 33" version="1.1" xmlns="http://www.w3.org/2000/svg" xmlns:xlink="http://www.w3.org/1999/xlink">
    <!-- Generator: sketchtool 49.3 (51167) - http://www.bohemiancoding.com/sketch -->
    <title>8C61621E-3819-4A85-8A95-818C4971EDF5</title>
    <desc>Created with sketchtool.</desc>
    <defs>
        <circle id="path-1" cx="12.9908621" cy="12.6938092" r="12.5"></circle>
        <filter x="-20.0%" y="-20.0%" width="156.0%" height="156.0%" filterUnits="objectBoundingBox" id="filter-2">
            <feOffset dx="2" dy="2" in="SourceAlpha" result="shadowOffsetOuter1"></feOffset>
            <feGaussianBlur stdDeviation="2" in="shadowOffsetOuter1" result="shadowBlurOuter1"></feGaussianBlur>
            <feColorMatrix values="0 0 0 0 0   0 0 0 0 0   0 0 0 0 0  0 0 0 0.1 0" type="matrix" in="shadowBlurOuter1"></feColorMatrix>
        </filter>
    </defs>
    <g id="Symbols" stroke="none" stroke-width="1" fill="none" fill-rule="evenodd">
        <g id="MapControl" transform="translate(2.000000, -113.000000)">
            <g id="Group">
                <g id="location" transform="translate(0.000000, 115.000000)">
                    <g id="Ellipse_26_copy_8" fill-rule="nonzero">
                        <use fill="black" fill-opacity="1" filter="url(#filter-2)" xlink:href="#path-1"></use>
                        <use fill="#FFFFFF" fill-rule="evenodd" xlink:href="#path-1"></use>
                    </g>
                    <path d="M13.7469258,8.49434625 C13.7469258,7.55174916 14.5137462,6.78492877 15.4562705,6.78492877 C16.3987948,6.78492877 17.1656152,7.55174916 17.1656152,8.49434625 C17.1656152,8.79915208 17.0839889,9.098788 16.9295472,9.36070547 C16.9112705,9.39179771 16.8946686,9.41837538 16.8787948,9.44204042 L15.4570715,11.5348317 L14.0343288,9.44313266 C14.0179453,9.41852101 14.0009792,9.39136081 13.9830666,9.36077829 C13.8285521,9.098788 13.7469258,8.79915208 13.7469258,8.49434625 Z M13.4258822,9.85359382 L15.1537948,12.394055 C15.2221686,12.4945404 15.3356152,12.5546132 15.4572899,12.5546132 C15.5788919,12.5546132 15.6924113,12.4945404 15.7607851,12.3939094 L17.4870957,9.85272004 C17.5112705,9.81674916 17.5356637,9.77793848 17.5618773,9.73352101 C17.7827996,9.35873945 17.8995229,8.93029285 17.8995229,8.49434625 C17.8995229,7.14711324 16.8035035,6.05102101 15.4562705,6.05102101 C14.1090375,6.05102101 13.0130181,7.14711324 13.0130181,8.49434625 C13.0130181,8.93029285 13.1297414,9.35873945 13.3506637,9.73344819 C13.3772414,9.77852101 13.4011977,9.81667635 13.4258822,9.85359382 L13.4258822,9.85359382 Z" id="Fill-1" fill="#08BFC1"></path>
                    <path d="M17.9727754,17.1733026 C17.9727754,17.978788 17.3174356,18.6341278 16.5119501,18.6341278 L15.8232608,18.6341278 L15.8232608,13.8626715 L17.9727754,13.8626715 L17.9727754,17.1733026 Z M15.0892802,18.6341278 L12.4125084,18.6341278 L12.4125084,16.2486909 C12.4125084,16.1746375 12.3905181,16.1032055 12.3488676,16.0421132 L10.8650326,13.8626715 L15.0892802,13.8626715 L15.0892802,18.6341278 Z M11.6786006,18.6341278 L9.15787244,18.6341278 C8.35231419,18.6341278 7.69697439,17.978788 7.69697439,17.1733026 L7.69697439,13.8626715 L9.97712002,13.8626715 L11.6786006,16.3617734 L11.6786006,18.6341278 Z M7.69697439,9.81922489 C7.69697439,9.01366664 8.35231419,8.35832683 9.15787244,8.35832683 L9.80469283,8.35832683 L9.80469283,13.1287637 L7.69697439,13.1287637 L7.69697439,9.81922489 Z M18.3036491,9.82752586 C18.1128724,9.84572974 17.9727754,10.0169191 17.9727754,10.2085696 L17.9727754,13.1287637 L10.5386006,13.1287637 L10.5386006,8.35832683 L11.9273385,8.35832683 C12.1299841,8.35832683 12.2942559,8.19405499 12.2942559,7.99133654 C12.2942559,7.78869091 12.1299841,7.62441907 11.9273385,7.62441907 L9.15787244,7.62441907 C7.94571225,7.62441907 6.96306662,8.6070647 6.96306662,9.81922489 L6.96306662,17.1733026 C6.96306662,18.3854628 7.94563943,19.3680356 9.15779963,19.3680356 L16.5119501,19.3680356 C17.7241103,19.3680356 18.7066831,18.3854628 18.7066831,17.1733026 L18.7066831,10.1927686 C18.7066831,9.97825402 18.5225326,9.80670062 18.3036491,9.82752586 L18.3036491,9.82752586 Z" id="Fill-2" fill="#08BFC1"></path>
                    <path d="M15.5076055,8.81670062 C15.2935278,8.81670062 15.119353,8.64252586 15.119353,8.42844819 C15.119353,8.21437052 15.2935278,8.04012295 15.5076055,8.04012295 C15.7216831,8.04012295 15.8959307,8.21437052 15.8959307,8.42844819 C15.8959307,8.64252586 15.7216831,8.81670062 15.5076055,8.81670062 Z M15.5076055,7.38478314 C14.9321443,7.38478314 14.4640132,7.85291421 14.4640132,8.42844819 C14.4640132,9.00390936 14.9321443,9.47204042 15.5076055,9.47204042 C16.0831394,9.47204042 16.5512705,9.00390936 16.5512705,8.42844819 C16.5512705,7.85291421 16.0831394,7.38478314 15.5076055,7.38478314 L15.5076055,7.38478314 Z" id="Fill-3" fill="#08BFC1"></path>
                </g>
            </g>
        </g>
    </g>
</svg>