<?xml version="1.0" encoding="UTF-8"?>
<svg width="40px" height="40px" viewBox="0 0 40 40" version="1.1" xmlns="http://www.w3.org/2000/svg" xmlns:xlink="http://www.w3.org/1999/xlink">
    <!-- Generator: sketchtool 51.3 (57544) - http://www.bohemiancoding.com/sketch -->
    <title>99FF9EF1-7D18-4221-A526-E3AF22967B48</title>
    <desc>Created with sketchtool.</desc>
    <defs></defs>
    <g id="Driving-History" stroke="none" stroke-width="1" fill="none" fill-rule="evenodd">
        <g id="(Mobile)DH3.1" transform="translate(-313.000000, -692.000000)">
            <g id="Map-Expand" transform="translate(313.000000, 691.986705)">
                <g>
                    <path d="M20,0 C31.0458252,0 40,8.95417476 40,20 C40,31.0458252 31.0458252,40 20,40 C8.95417476,40 0,31.0458252 0,20 C0,8.95417476 8.95417476,0 20,0" id="Fill-1-Copy-14" fill="#FFFFFF"></path>
                    <rect id="Rectangle-17" x="7.5" y="7.5" width="25" height="25"></rect>
                    <path d="M14.8119657,15.3536785 C14.7316476,15.2733604 14.6628709,15.2984129 14.661416,15.412702 L14.617531,18.860019 C14.6105816,19.4076272 13.7894597,19.4180476 13.7964091,18.8704394 L13.8271463,14.3190127 C13.8291235,14.0262356 14.0636772,13.7929065 14.3510872,13.7903681 L18.9168046,13.7500439 C19.4644128,13.7430945 19.4538454,14.5643634 18.9063842,14.5711658 L15.4590673,14.6150508 C15.3424588,14.6165352 15.3183523,14.6839091 15.4000437,14.7656005 L25.2330725,24.5986658 C25.3146088,24.680202 25.3834943,24.6552585 25.3849492,24.5409693 L25.4288342,21.0936524 C25.4357836,20.5460442 26.2569055,20.5356237 26.2499561,21.0832319 L26.219219,25.6346587 C26.2172418,25.9274357 25.982688,26.1607648 25.695278,26.1633032 L21.1295606,26.2036275 C20.5819524,26.2105769 20.5925198,25.3893079 21.139981,25.3825055 L24.587298,25.3386205 C24.7039063,25.3371361 24.7274187,25.2691681 24.6449944,25.1867438 L14.8119657,15.3536785 Z" id="Shape" stroke="#383838" fill="#383838" fill-rule="nonzero" transform="translate(20.023183, 19.976836) scale(-1, 1) translate(-20.023183, -19.976836) "></path>
                </g>
            </g>
        </g>
    </g>
</svg>