<?xml version="1.0" encoding="UTF-8"?>
<svg width="50px" height="54px" viewBox="0 0 50 54" version="1.1" xmlns="http://www.w3.org/2000/svg" xmlns:xlink="http://www.w3.org/1999/xlink">
    <!-- Generator: sketchtool 51.3 (57544) - http://www.bohemiancoding.com/sketch -->
    <title>0B7A9F79-2B21-4B07-A9C1-6B5FAA372351</title>
    <desc>Created with sketchtool.</desc>
    <defs>
        <path d="M44.8749775,33.5778455 L37.7051257,23.4519026 C37.6044887,23.3072842 37.5082929,23.1597685 37.402815,22.9879406 C36.5137544,21.5394353 36.0438551,19.8828677 36.0438551,18.1971624 C36.0438551,12.9882639 40.4558561,8.75 45.8783831,8.75 C51.30091,8.75 55.7129111,12.9882639 55.7129111,18.1971624 C55.7129111,19.8828357 55.2430284,21.539417 54.3539293,22.9882666 C54.2492569,23.1586367 54.1511347,23.3088073 54.0531897,23.4488 L46.8901204,33.5774475 C46.6631595,33.8983168 46.286467,34.089885 45.8826135,34.089885 C45.4786662,34.089885 45.1020948,33.8984713 44.8749775,33.5778455 Z M38.4802807,18.1971624 C38.4802807,19.4646447 38.8336866,20.7103734 39.5024577,21.7996239 C39.577738,21.9230875 39.6512331,22.0364061 39.7239982,22.1414067 L45.6298563,30.4818993 L46.1336563,30.4817599 L52.0335863,22.1393369 C52.1044166,22.0379128 52.1765208,21.9269438 52.2548344,21.7989686 C52.9231367,20.7102715 53.2764855,19.4645368 53.2764855,18.1971624 C53.2764855,14.2781776 49.9579803,11.0903869 45.8783831,11.0903869 C41.7987859,11.0903869 38.4802807,14.2781776 38.4802807,18.1971624 Z M56.6260744,25.0305128 C56.6260744,24.3997295 57.1057225,23.8594769 57.7234512,23.8028344 C58.4459959,23.7368221 59.0625,24.2782191 59.0625,24.9675259 L59.0625,52.7937924 C59.0625,57.4641968 55.121345,61.25 50.2592889,61.25 L19.7407111,61.25 C14.878655,61.25 10.9375,57.4641968 10.9375,52.7937924 L10.9375,23.4784813 C10.9375,18.8080769 14.8789572,15.0219835 19.7410133,15.0219835 L31.2338654,15.0219835 C31.9065936,15.0219835 32.4519271,15.5458212 32.4519271,16.1920318 C32.4519271,16.8384968 31.9066309,17.3623704 31.2338654,17.3623704 L25.4708198,17.3623704 L25.1662312,17.6549528 L25.1662312,36.671184 L25.4708198,36.9637664 L56.3214858,36.9637664 L56.6260744,36.671184 L56.6260744,25.0305128 Z M56.6260744,52.7937924 L56.6260744,39.5967358 L56.3214858,39.3041534 L47.4013356,39.3041534 L47.096747,39.5967358 L47.096747,58.6170307 L47.4013356,58.9096131 L50.2592889,58.9096131 C53.7701475,58.9096131 56.6260744,56.1662606 56.6260744,52.7937924 Z M44.6600192,58.6170307 L44.6600192,39.5967358 L44.3554306,39.3041534 L26.8254619,39.3041534 L26.573687,39.7613954 L32.7313707,48.4492304 C32.8697739,48.6442358 32.9426563,48.8715286 32.9426563,49.1080443 L32.9426563,58.6170307 L33.2472449,58.9096131 L44.3554306,58.9096131 L44.6600192,58.6170307 Z M30.5062307,58.6170307 L30.5062307,49.5588213 L23.3925374,39.4320754 L13.6785142,39.3041534 L13.3739256,39.5967358 L13.3739256,52.7937924 C13.3739256,56.1663078 16.2299017,58.9096131 19.7410133,58.9096131 L30.2016421,58.9096131 L30.5062307,58.6170307 Z M13.3739256,23.4784813 L13.3739256,36.671184 L13.6785142,36.9637664 L22.4252171,36.9637664 L22.7298057,36.671184 L22.7298057,17.6549528 L22.4252171,17.3623704 L19.7410133,17.3623704 C16.2298525,17.3623704 13.3739256,20.1057229 13.3739256,23.4784813 Z M46.0914151,14.0667309 C48.3115718,14.0667309 50.1178737,15.8018323 50.1178737,17.9344752 C50.1178737,20.0668696 48.3115283,21.8019292 46.0914151,21.8019292 C43.8715607,21.8019292 42.0652587,20.0668278 42.0652587,17.9344752 C42.0652587,15.8018741 43.8715172,14.0667309 46.0914151,14.0667309 Z M46.0914151,19.7747351 C47.1480636,19.7747351 48.0074929,18.9493963 48.0074929,17.9344752 C48.0074929,16.9195158 47.1480237,16.093925 46.0914151,16.093925 C45.0348464,16.093925 44.1756395,16.9194775 44.1756395,17.9344752 C44.1756395,18.9494346 45.0348065,19.7747351 46.0914151,19.7747351 Z" id="path-1"></path>
    </defs>
    <g id="Driving-History" stroke="none" stroke-width="1" fill="none" fill-rule="evenodd" opacity="0.3">
        <g id="DH3.10" transform="translate(-950.000000, -496.000000)">
            <g id="icons-/-brand-/-vehicleLocation_ic" transform="translate(940.000000, 488.176779)">
                <mask id="mask-2" fill="white">
                    <use xlink:href="#path-1"></use>
                </mask>
                <use fill="#383838" fill-rule="nonzero" xlink:href="#path-1"></use>
                <g id="colors-/-neutral-/-charcoal" mask="url(#mask-2)" fill="#383838" fill-rule="evenodd">
                    <rect id="charcoal" x="0" y="0" width="70" height="70"></rect>
                </g>
            </g>
        </g>
    </g>
</svg>
